<?xml version="1.0" standalone="no"?>
<!DOCTYPE svg PUBLIC "-//W3C//DTD SVG 20010904//EN"
 "http://www.w3.org/TR/2001/REC-SVG-20010904/DTD/svg10.dtd">
<svg version="1.0" xmlns="http://www.w3.org/2000/svg"
 width="240.000000pt" height="249.000000pt" viewBox="0 0 240.000000 249.000000"
 preserveAspectRatio="xMidYMid meet">
<metadata>
Created by potrace 1.16, written by Peter Selinger 2001-2019
</metadata>
<g transform="translate(0.000000,249.000000) scale(0.100000,-0.100000)"
fill="#FFFFFF" stroke="none">
<path d="M800 2355 c-6 -8 -20 -40 -30 -72 -12 -40 -23 -59 -36 -61 -40 -8
-84 -35 -84 -52 0 -42 158 -77 300 -66 100 7 150 19 182 46 21 17 22 20 7 35
-9 9 -33 22 -54 29 -34 12 -40 20 -61 76 -30 83 -34 87 -86 73 -26 -7 -50 -8
-65 -2 -35 13 -59 11 -73 -6z m130 -161 c41 3 86 8 99 12 18 5 23 4 19 -7 -7
-22 -67 -38 -148 -38 -94 -1 -150 13 -150 38 0 17 3 17 53 4 34 -9 78 -13 127
-9z"/>
<path d="M725 2079 c-10 -15 3 -59 26 -87 10 -14 19 -38 19 -54 0 -80 63 -143
134 -134 21 2 46 12 55 20 14 15 11 16 -31 16 -32 0 -53 6 -69 21 -23 19 -23
20 -2 10 35 -17 88 -13 117 10 30 24 56 69 56 97 0 11 7 22 15 26 10 4 15 19
15 48 -1 40 -2 42 -15 24 -13 -17 -15 -18 -15 -3 0 23 -9 21 -32 -5 -13 -16
-21 -19 -29 -11 -22 22 -38 4 -28 -30 11 -40 -8 -65 -37 -48 -18 10 -17 10 4
11 21 0 22 3 16 43 -4 23 -8 44 -10 46 -1 1 -18 -4 -36 -13 -32 -16 -34 -16
-50 4 -25 31 -58 27 -58 -7 l-1 -28 -15 28 c-16 30 -20 32 -29 16z m235 -139
c-8 -5 -31 -9 -50 -8 l-35 1 40 7 c59 11 61 11 45 0z m-33 -36 c-3 -3 -12 -4
-19 -1 -8 3 -5 6 6 6 11 1 17 -2 13 -5z"/>
<path d="M1734 1979 c-79 -7 -166 -44 -209 -89 l-27 -28 22 -7 c41 -13 94 -12
164 2 50 9 79 10 105 3 20 -5 82 -10 137 -10 98 0 103 -1 150 -32 106 -73 125
-219 41 -315 -55 -62 -92 -73 -261 -73 -132 0 -155 3 -193 21 -54 26 -97 78
-113 135 -14 48 -19 50 -94 37 l-38 -6 6 -40 c20 -121 133 -240 253 -265 l38
-8 5 -504 5 -505 30 -39 30 -39 5 416 c5 408 10 466 36 425 5 -7 10 -215 11
-463 l3 -449 24 -24 24 -24 51 67 51 68 0 163 0 164 -50 0 -50 0 0 35 0 35 50
0 50 0 0 335 0 335 28 6 c163 35 276 170 276 329 0 137 -61 244 -175 305 -61
32 -71 35 -189 40 -69 3 -157 2 -196 -1z"/>
<path d="M1037 1838 c-3 -24 -11 -85 -18 -135 l-12 -93 -116 0 -117 0 -18 128
c-18 125 -19 129 -41 124 -23 -4 -24 -6 -28 -166 -2 -88 -6 -172 -10 -185 -21
-77 -42 -123 -73 -160 -30 -34 -38 -54 -49 -123 -8 -46 -27 -146 -44 -223 -53
-246 -103 -677 -82 -698 15 -15 186 -31 222 -21 33 10 34 11 128 271 53 144
97 261 98 259 5 -5 163 -443 175 -484 15 -53 64 -63 198 -41 l69 12 -4 71 c-8
132 -36 420 -61 626 -13 113 -27 230 -31 260 -4 40 -14 64 -34 88 -74 84 -91
147 -98 352 -6 169 -7 175 -27 178 -18 3 -22 -3 -27 -40z m-274 -304 c-3 -8
-12 -14 -19 -14 -20 0 -30 30 -13 40 17 11 40 -7 32 -26z m294 25 c16 -16 5
-39 -18 -39 -12 0 -19 7 -19 18 0 31 17 41 37 21z"/>
<path d="M1114 1835 c-9 -51 4 -248 22 -320 9 -33 28 -80 42 -105 l27 -45 6
123 c4 68 8 125 11 127 2 2 64 13 138 25 274 42 260 38 260 75 0 50 -19 95
-43 100 -32 6 -177 27 -212 29 -62 5 -181 17 -212 22 -30 4 -32 3 -39 -31z"/>
<path d="M603 1811 c-47 -34 -94 -90 -155 -186 -44 -69 -128 -225 -128 -238 0
-4 -9 -26 -20 -50 -10 -23 -28 -73 -38 -112 l-19 -69 59 -40 c32 -21 60 -37
62 -35 2 2 49 80 104 172 93 155 101 166 104 135 l3 -33 29 49 c37 60 54 133
62 262 7 101 0 174 -15 174 -4 0 -26 -13 -48 -29z"/>
<path d="M1685 1826 c-27 -6 -50 -16 -50 -21 1 -6 4 -30 9 -53 7 -37 13 -46
43 -59 44 -18 97 -14 101 9 2 11 -6 18 -27 23 -36 8 -39 20 -12 35 34 18 78
11 110 -16 25 -21 32 -23 37 -11 9 25 -25 65 -69 81 -64 22 -88 25 -142 12z"/>
<path d="M775 1793 c3 -21 11 -66 17 -101 l10 -63 92 3 91 3 6 55 c3 30 10 75
14 99 l7 45 -31 -27 c-34 -28 -87 -43 -119 -33 -11 4 -37 18 -57 31 l-36 25 6
-37z"/>
<path d="M210 1048 c-42 -89 -37 -165 17 -228 36 -43 53 -25 29 29 -14 29 -16
46 -9 67 12 36 33 43 33 11 0 -24 38 -82 41 -62 0 6 1 53 0 105 l0 95 -33 23
c-18 12 -36 22 -41 22 -4 0 -21 -28 -37 -62z"/>
<path d="M385 259 c-87 -50 -114 -79 -129 -141 l-6 -28 214 0 214 0 7 31 c4
17 4 54 1 83 l-7 51 -77 0 c-42 0 -104 3 -137 8 -40 5 -67 4 -80 -4z"/>
<path d="M1235 258 c-22 -5 -68 -7 -102 -5 -49 4 -63 2 -64 -9 0 -8 0 -44 -1
-81 l0 -68 211 -3 211 -2 0 27 c0 41 -32 82 -91 120 -56 35 -90 39 -164 21z"/>
</g>
</svg>
